<?xml version="1.0" encoding="UTF-8" standalone="no"?>
<!-- Created with Inkscape (http://www.inkscape.org/) -->

<svg
   version="1.1"
   id="svg2"
   width="1024"
   height="1024"
   viewBox="0 0 1024 1024"
   sodipodi:docname="MCLinkerPfPTransparent.svg"
   inkscape:version="1.2 (dc2aedaf03, 2022-05-15)"
   xmlns:inkscape="http://www.inkscape.org/namespaces/inkscape"
   xmlns:sodipodi="http://sodipodi.sourceforge.net/DTD/sodipodi-0.dtd"
   xmlns="http://www.w3.org/2000/svg"
   xmlns:svg="http://www.w3.org/2000/svg">
  <defs
     id="defs6" />
  <sodipodi:namedview
     id="namedview4"
     pagecolor="#ffffff"
     bordercolor="#000000"
     borderopacity="0.25"
     inkscape:showpageshadow="2"
     inkscape:pageopacity="0.0"
     inkscape:pagecheckerboard="0"
     inkscape:deskcolor="#d1d1d1"
     showgrid="false"
     inkscape:zoom="0.32130968"
     inkscape:cx="869.8773"
     inkscape:cy="697.14674"
     inkscape:window-width="1920"
     inkscape:window-height="1017"
     inkscape:window-x="1912"
     inkscape:window-y="-8"
     inkscape:window-maximized="1"
     inkscape:current-layer="g8" />
  <g
     inkscape:groupmode="layer"
     inkscape:label="Image"
     id="g8">
    <g
       id="g170">
      <path
         style="fill:#6f9e2d"
         d="m 457,526 v -28 h -2.24755 C 451.74701,498 602.66273,346.65307 611.42787,340.87691 619.8383,335.3345 628.1581,333 639.5,333 c 19.00195,0 34.4126,8.49612 44.4392,24.5 9.36804,14.95273 9.60234,37.39701 0.55551,53.2142 C 680.46636,417.75723 572.27364,526 569.2622,526 567.02032,526 567,525.87423 567,512 v -14 h -14 -14 v 28 28 H 525.5 512 v -14 -14 h -14 -14 v 14 14 H 470.5 457 Z m 179,14.0575 V 526.115 l -4.01779,-0.3075 -4.0178,-0.3075 26.9975,-26.97277 26.99749,-26.97277 4.0203,3.92572 L 690,479.4059 V 488.70295 498 H 676.5 663 v 28 28 H 649.5 636 Z M 346,470.5 V 443 H 332.5 319 v 14 14 h -14 -14 v -14 -14 l -21.75,-0.0101 -21.75,-0.0101 28.5,-28.40058 c 27.46487,-27.36906 28.70884,-28.46088 34.24988,-30.0608 4.83911,-1.39724 6.66069,-1.47529 11.5,-0.49276 l 5.75012,1.16746 43,42.89657 43,42.89657 -19.75,0.007 L 374,471 v 13.5 13.5 h -14 -14 z m 427,14 V 471 h -14 -14 v -7.70502 -7.70501 l 23.38211,-23.54499 c 17.68661,-17.8098 24.76761,-25.67898 29.07008,-32.30582 27.32429,-42.08602 27.32419,-93.39398 -2.6e-4,-135.47832 -7.56632,-11.65342 -26.05935,-30.14645 -37.71277,-37.71277 -42.07835,-27.32056 -93.29787,-27.32654 -135.47832,-0.0158 -7.23601,4.68513 -16.28951,13.17869 -52.01647,48.79941 l -43.25564,43.127 11.74703,11.7777 11.74702,11.77771 -39.74005,39.74004 -39.74004,39.74005 -44.10345,-43.99709 C 399.52772,348.1964 384.16917,332.16388 382.91986,329.5 c -2.45029,-5.22468 -2.45307,-13.7653 -0.006,-19 C 385.68345,304.57447 539.42963,151.60565 551.5,142.76605 584.57795,118.5418 619.25363,104.15837 658.54999,98.36186 675.08727,95.922484 709.11632,95.905398 725,98.328495 c 26.39639,4.026835 46.06357,10.156335 69.5,21.660435 26.87414,13.19156 44.49774,26.07217 66.5678,48.65262 35.57536,36.39807 56.61711,78.56917 64.61482,129.49864 1.87994,11.97141 2.61574,54.43191 1.04166,60.10981 -0.74492,2.68699 -0.93378,2.75 -8.24333,2.75 L 911,361 V 340.5 320 h -14 -14 v 34 34 H 869.5 856 v 14 14 H 828.5 801 v 41 41 h -14 -14 z"
         id="path174" />
      <path
         style="fill:#8f5c2a"
         d="M 310,926.98139 C 263.05089,922.07788 220.96713,904.94542 185.5,876.29695 173.04142,866.23357 153.6835,846.48216 144.19333,834.15062 120.18393,802.95281 104.5864,766.11793 98.338175,725.85981 95.857829,709.87864 95.848761,673.93468 98.321056,658 104.85112,615.91181 120.55351,579.70795 146.97968,545.81141 150.5435,541.24013 174.59127,516.2375 200.41916,490.25 L 247.37897,443 H 269.18948 291 v 14 14 h 14 14 v -14 -14 h 13.5 13.5 v 27.5 27.5 h 14 14 V 484.5 471 h 19.82569 19.82568 l 2.3845,2.53818 2.3845,2.53818 -38.20318,38.20318 -38.20317,38.20318 -11.77227,-11.7416 -11.77227,-11.7416 -43.14158,43.25024 c -35.72409,35.81408 -44.11527,44.75652 -48.80481,52.01108 -27.27105,42.1874 -27.28529,93.54632 -0.0375,135.34808 6.88023,10.55521 22.77353,27.09614 33.35715,34.7164 20.54823,14.79484 47.49375,23.64916 72.02895,23.66878 16.72767,0.0134 37.98843,-4.94238 53.78011,-12.53583 16.10879,-7.74593 20.97344,-11.92931 66.10906,-56.85087 l 43.26082,-43.05565 -11.75218,-11.78288 -11.75219,-11.78289 38.24005,-38.24004 38.24004,-38.24004 44.06874,43.99705 c 24.23781,24.19838 44.9384,45.66662 46.00131,47.70721 2.37575,4.56097 2.5996,14.58194 0.42796,19.15834 -2.17879,4.59145 -154.20041,155.99821 -164.03962,163.37614 -18.9729,14.22684 -40.77807,26.31929 -60.81247,33.72465 -13.16173,4.865 -33.55789,10.01323 -47.65357,12.02833 -13.5536,1.93761 -43.93553,2.74275 -55.98972,1.48377 z M 368.7977,689.0692 C 357.29951,685.39278 347.51459,677.87393 340.82171,667.57213 330.99298,652.44358 330.16746,631.65333 338.71437,614.5 342.14303,607.61881 451.30552,498 454.7294,498 H 457 v 28 28 h 13.5 13.5 v -14 -14 h 14 14 v 14 14 h 13.5 13.5 v -28 -28 h 14 14 v 14 c 0,13.84733 0.0245,14 2.24755,14 3.00544,0 -147.91028,151.34693 -156.67542,157.12309 -8.57109,5.64829 -16.71136,7.88846 -28.42747,7.82313 -6.44986,-0.036 -11.53355,-0.65773 -15.34696,-1.87702 z M 694.5,641.08014 c -2.66385,-1.2493 -18.69442,-16.60588 -47.99036,-45.97266 l -43.99036,-44.09672 12.47535,-12.50538 C 627.06799,526.40297 627.60742,526 631.73499,526 H 636 v 14 14 h 13.5 13.5 v -28 -28 h 13.5 13.5 v -9.24194 -9.24193 l 7.74139,7.74139 7.7414,7.74139 19.7586,-19.74008 L 745,455.51875 V 463.25938 471 h 14 14 v 13.5 13.5 h 14 14 v -41 -41 h 27.5 27.5 v -14 -14 h 13.5 13.5 v -34 -34 h 14 14 v 20.5 20.5 h 7.5 c 8.93223,0 8.53747,-1.33385 4.98993,16.86011 C 916.31421,414.66165 900.5681,448.34522 876.2099,479 865.55154,492.41355 721.96096,636.33719 715.5,640.08268 c -6.14522,3.56245 -14.66761,3.96725 -21,0.99746 z"
         id="path172" />
    </g>
  </g>
</svg>
